<?xml version="1.0" encoding="UTF-8" standalone="no"?>
<!-- Created with Inkscape (http://www.inkscape.org/) -->

<svg
   width="150mm"
   height="100mm"
   viewBox="0 0 150 100"
   version="1.1"
   id="svg4164"
   inkscape:version="1.1 (c4e8f9e, 2021-05-24)"
   sodipodi:docname="logoPetra.svg"
   xmlns:inkscape="http://www.inkscape.org/namespaces/inkscape"
   xmlns:sodipodi="http://sodipodi.sourceforge.net/DTD/sodipodi-0.dtd"
   xmlns="http://www.w3.org/2000/svg"
   xmlns:svg="http://www.w3.org/2000/svg">
  <sodipodi:namedview
     id="namedview4166"
     pagecolor="#ffffff"
     bordercolor="#666666"
     borderopacity="1.0"
     inkscape:pageshadow="2"
     inkscape:pageopacity="0.0"
     inkscape:pagecheckerboard="0"
     inkscape:document-units="mm"
     showgrid="false"
     width="150mm"
     inkscape:zoom="1.0633188"
     inkscape:cx="260.50514"
     inkscape:cy="207.36961"
     inkscape:window-width="1870"
     inkscape:window-height="1016"
     inkscape:window-x="50"
     inkscape:window-y="27"
     inkscape:window-maximized="1"
     inkscape:current-layer="layer1" />
  <defs
     id="defs4161">
    <filter
       inkscape:collect="always"
       style="color-interpolation-filters:sRGB"
       id="filter69996"
       x="-0.38378891"
       y="-0.33046701"
       width="1.8516669"
       height="1.6121298">
      <feGaussianBlur
         inkscape:collect="always"
         stdDeviation="3.445765"
         id="feGaussianBlur69994" />
    </filter>
  </defs>
  <g
     inkscape:label="Calque 1"
     inkscape:groupmode="layer"
     id="layer1">
    <g
       id="g79837"
       style="display:inline"
       transform="matrix(0.99999859,0,0,1,-33.19053,-89.926728)">
      <path
         style="display:inline;opacity:0.636081;mix-blend-mode:normal;fill:none;stroke:#ffcc00;stroke-width:4.865;stroke-linecap:butt;stroke-linejoin:miter;stroke-miterlimit:4;stroke-dasharray:none;stroke-opacity:1;filter:url(#filter69996)"
         d="m 38.741086,128.58213 6.683958,29.01809 20.326025,10.24611 22.822803,-14.30226"
         id="path70442"
         sodipodi:nodetypes="ccc" />
      <path
         style="display:inline;fill:#f2f2f2;fill-opacity:1;stroke:#cccccc;stroke-width:0.6;stroke-linecap:round;stroke-linejoin:round;stroke-miterlimit:4;stroke-dasharray:none;stroke-opacity:1"
         d="m 102.30941,121.23049 -18.958091,-3.9353 0.505767,7.91693 1.619684,7.77534 13.629818,-1.14498 z"
         id="path1701"
         sodipodi:nodetypes="ccc" />
      <path
         style="display:inline;opacity:0.636081;mix-blend-mode:normal;fill:none;stroke:#ffcc00;stroke-width:4.865;stroke-linecap:butt;stroke-linejoin:miter;stroke-miterlimit:4;stroke-dasharray:none;stroke-opacity:1;filter:url(#filter69996)"
         d="M 88.573871,153.54407 86.932764,125.8287 65.708757,121.3193"
         id="path69813" />
      <path
         style="fill:#666666;fill-opacity:1;stroke:#fefefe;stroke-width:0.7;stroke-linecap:round;stroke-linejoin:round;stroke-miterlimit:4;stroke-dasharray:none;stroke-opacity:1"
         d="m 38.774389,128.48891 26.934369,-7.16961 21.224008,4.5094 1.641106,27.71537 -22.856498,14.37563 -20.29233,-10.31948 z"
         id="path1760" />
      <path
         style="fill:none;stroke:#ffffff;stroke-width:0.7;stroke-linecap:butt;stroke-linejoin:miter;stroke-miterlimit:4;stroke-dasharray:none;stroke-dashoffset:0;stroke-opacity:1"
         d="m 38.774389,128.48891 22.609365,7.23819 25.549012,-9.8984"
         id="path1762"
         sodipodi:nodetypes="ccc" />
      <path
         style="fill:none;stroke:#e5e5e5;stroke-width:0.8;stroke-linecap:butt;stroke-linejoin:miter;stroke-miterlimit:4;stroke-dasharray:0.8, 1.6;stroke-dashoffset:0;stroke-opacity:1"
         d="m 65.717374,167.9197 -4.33362,-32.1926"
         id="path1764"
         sodipodi:nodetypes="cc" />
      <path
         style="display:inline;fill:#ffffff;fill-opacity:1;stroke:#cccccc;stroke-width:0.6;stroke-linecap:round;stroke-linejoin:round;stroke-miterlimit:4;stroke-dasharray:none;stroke-opacity:1"
         d="m 79.225111,164.5751 7.333527,3.37033 -20.807695,-0.0941 -20.322397,-10.33031 -6.658349,-29.00304 21.380453,-21.75042 22.320958,2.76567 -21.778431,25.74656 36.641805,-5.1453 4.974428,-8.904 0.12061,24.92474 -4.317418,13.81773 -32.361659,7.87837"
         id="path1699"
         sodipodi:nodetypes="ccccccccccccc" />
      <path
         style="display:inline;fill:none;stroke:#cccccc;stroke-width:0.4;stroke-linecap:butt;stroke-linejoin:miter;stroke-miterlimit:4;stroke-dasharray:0.4, 1.2;stroke-dashoffset:0;stroke-opacity:1"
         d="m 97.334982,130.13449 0.77762,29.83847"
         id="path1703" />
      <path
         style="display:inline;fill:none;stroke:#cccccc;stroke-width:0.8;stroke-linecap:butt;stroke-linejoin:miter;stroke-miterlimit:4;stroke-dasharray:0.8, 1.6;stroke-dashoffset:0;stroke-opacity:1"
         d="m 38.770197,128.51798 21.92298,6.76181 5.057766,32.57154"
         id="path1705" />
      <path
         style="display:inline;fill:#f2f2f2;fill-opacity:1;stroke:#b2b2b2;stroke-width:0.6;stroke-linecap:round;stroke-linejoin:round;stroke-miterlimit:4;stroke-dasharray:none;stroke-opacity:1"
         d="m 120.93246,125.33549 -3.72387,-7.32907 -0.50535,9.73621"
         id="path1647"
         sodipodi:nodetypes="ccc" />
      <path
         style="display:inline;fill:#ffffff;fill-opacity:1;stroke:#b2b2b2;stroke-width:0.6;stroke-linecap:round;stroke-linejoin:round;stroke-miterlimit:4;stroke-dasharray:none;stroke-opacity:1"
         d="m 100.31094,165.16444 19.05069,-12.5762 1.57083,-27.25275 -21.035963,8.1171 -39.248202,1.84578 16.488269,-33.18854 -22.981042,-2.02291 -15.385325,28.43106 6.658349,29.00304 20.322397,10.33031 z"
         id="path1645"
         sodipodi:nodetypes="ccccccccc" />
      <path
         style="display:inline;fill:#f2f2f2;fill-opacity:1;stroke:#b2b2b2;stroke-width:0.6;stroke-linecap:round;stroke-linejoin:round;stroke-miterlimit:4;stroke-dasharray:none;stroke-opacity:1"
         d="m 65.750943,167.85133 17.670463,7.9341 -16.015622,-8.04643"
         id="path1650"
         sodipodi:nodetypes="ccc" />
      <path
         style="display:inline;fill:none;stroke:#b2b2b2;stroke-width:0.4;stroke-linecap:butt;stroke-linejoin:miter;stroke-miterlimit:4;stroke-dasharray:0.4, 1.2;stroke-dashoffset:0;stroke-opacity:1"
         d="m 99.896497,133.45259 0.414443,31.71185"
         id="path1667"
         sodipodi:nodetypes="cc" />
      <path
         style="display:inline;fill:none;stroke:#b2b2b2;stroke-width:0.8;stroke-linecap:butt;stroke-linejoin:miter;stroke-miterlimit:4;stroke-dasharray:0.8, 2.4;stroke-dashoffset:0;stroke-opacity:1"
         d="m 38.770197,128.51798 21.878098,6.78039 5.102648,32.55296"
         id="path1667-0"
         sodipodi:nodetypes="ccc" />
      <path
         style="display:inline;fill:#ffffff;fill-opacity:1;stroke:#808080;stroke-width:0.6;stroke-linecap:round;stroke-linejoin:round;stroke-miterlimit:4;stroke-dasharray:none;stroke-opacity:1"
         d="m 38.770197,128.51798 10.72106,-31.667414 23.292636,1.503031 -12.135598,36.944773 39.460815,0.58246 30.64369,-6.21395 8.69385,-7.92894 -3.16253,25.49583 -8.35994,12.2476 -27.4271,9.2109 -34.746137,-0.84094 15.104387,12.50937 -18.607687,-9.97559 -16.820136,-12.85916 z"
         id="path1622"
         sodipodi:nodetypes="ccccccccccccccc" />
      <path
         style="display:inline;fill:none;stroke:#808080;stroke-width:0.4;stroke-linecap:butt;stroke-linejoin:miter;stroke-miterlimit:4;stroke-dasharray:0.4, 1.2;stroke-dashoffset:0;stroke-opacity:1"
         d="m 130.7528,129.66688 -2.82862,29.81449"
         id="path1624" />
      <path
         style="display:inline;fill:none;stroke:#808080;stroke-width:0.4;stroke-linecap:butt;stroke-linejoin:miter;stroke-miterlimit:4;stroke-dasharray:0.4, 1.2;stroke-dashoffset:0;stroke-opacity:1"
         d="m 100.10911,135.88083 0.38797,32.81144"
         id="path1626" />
      <path
         style="display:inline;fill:none;stroke:#000000;stroke-width:0.8;stroke-linecap:butt;stroke-linejoin:miter;stroke-miterlimit:4;stroke-dasharray:0.8, 0.8;stroke-dashoffset:0;stroke-opacity:1"
         d="m 38.741086,128.58213 21.959379,6.76785 5.050604,32.49635 -20.323562,-10.32038"
         id="path1628" />
      <path
         style="display:inline;fill:#ffffff;fill-opacity:1;stroke:#4d4d4d;stroke-width:0.7;stroke-linecap:round;stroke-linejoin:round;stroke-miterlimit:4;stroke-dasharray:none;stroke-opacity:1"
         d="m 44.410965,94.345299 23.642426,1.218318 -7.405096,39.734753 38.319618,3.05629 39.170497,-2.83636 23.82847,-6.75965 -6.02182,29.28944 -21.7888,10.14894 -34.65302,4.18828 -33.752297,-4.53398 12.323947,16.69131 -18.604971,-10.57295 -14.041373,-16.44867 -6.658349,-29.00304 z"
         id="path1556" />
      <path
         style="display:inline;fill:none;stroke:#000000;stroke-width:0.5;stroke-linecap:butt;stroke-linejoin:miter;stroke-miterlimit:4;stroke-dasharray:0.5, 1;stroke-dashoffset:0;stroke-opacity:1"
         d="m 134.15626,168.19703 3.98215,-32.67873"
         id="path1558" />
      <path
         style="display:inline;fill:none;stroke:#000000;stroke-width:0.5;stroke-linecap:butt;stroke-linejoin:miter;stroke-miterlimit:4;stroke-dasharray:0.5, 1;stroke-dashoffset:0;stroke-opacity:1"
         d="m 98.967913,138.35466 0.535327,34.03065"
         id="path1560" />
      <path
         style="display:inline;fill:none;stroke:#000000;stroke-width:0.5;stroke-linecap:butt;stroke-linejoin:miter;stroke-miterlimit:4;stroke-dasharray:0.5, 1;stroke-dashoffset:0;stroke-opacity:1"
         d="m 45.428546,157.52102 20.322397,10.33031 -5.102648,-32.55296 -21.878098,-6.78039"
         id="path1562" />
      <path
         style="display:inline;fill:#999999;fill-opacity:1;stroke:none;stroke-width:0.265;stroke-linecap:butt;stroke-linejoin:miter;stroke-miterlimit:4;stroke-dasharray:none;stroke-opacity:1"
         d="m 45.457885,96.644013 20.28824,1.30599 -6.141274,34.553597 -19.305355,-5.75299 z"
         id="path1565" />
      <path
         style="display:inline;fill:#666666;fill-opacity:1;stroke:none;stroke-width:0.265;stroke-linecap:butt;stroke-linejoin:miter;stroke-miterlimit:4;stroke-dasharray:none;stroke-opacity:1"
         d="m 59.409215,137.11791 4.654907,28.22188 -17.909019,-8.86736 -5.629575,-25.68912 z"
         id="path1567" />
      <path
         style="display:inline;fill:#999999;fill-opacity:1;stroke:none;stroke-width:2.5;stroke-linecap:butt;stroke-linejoin:miter;stroke-miterlimit:4;stroke-dasharray:none;stroke-dashoffset:0;stroke-opacity:1"
         d="m 47.530571,159.27158 17.644315,8.94249 10.660888,14.47493 -16.214728,-9.1361 z"
         id="path1569" />
      <path
         style="display:inline;fill:#999999;fill-opacity:1;stroke:none;stroke-width:0.265;stroke-linecap:butt;stroke-linejoin:miter;stroke-miterlimit:4;stroke-dasharray:none;stroke-opacity:1"
         d="m 67.410533,166.20799 29.98141,4.01251 -0.892502,-29.73903 -33.250375,-2.68572 z"
         id="path1571" />
      <path
         style="display:inline;fill:#b3b3b3;fill-opacity:1;stroke:none;stroke-width:0.265;stroke-linecap:butt;stroke-linejoin:miter;stroke-miterlimit:4;stroke-dasharray:none;stroke-opacity:1"
         d="m 101.43979,140.42147 0.3635,29.76899 30.55585,-3.57904 3.312,-28.63589 z"
         id="path1573" />
      <path
         style="display:inline;fill:#cccccc;fill-opacity:1;stroke:none;stroke-width:0.265;stroke-linecap:butt;stroke-linejoin:miter;stroke-miterlimit:4;stroke-dasharray:none;stroke-opacity:1"
         d="m 139.51836,137.25324 -3.67336,28.41183 19.26062,-8.84616 5.17535,-25.7373 z"
         id="path1575" />
      <path
         style="display:inline;fill:#ffffff;fill-opacity:1;stroke:none;stroke-width:4;stroke-linecap:round;stroke-linejoin:round;stroke-miterlimit:4;stroke-dasharray:none;stroke-opacity:1"
         d="m 109.69543,163.24186 c 0.17156,-6.22532 0.34655,-15.03692 0.30012,-15.11192 -0.0328,-0.0528 -1.44796,0.0373 -3.68467,0.23473 -1.99735,0.1763 -3.66858,0.29766 -3.71383,0.2697 -0.13429,-0.083 -0.10497,-3.28609 0.0306,-3.33334 0.17139,-0.0597 19.03268,-1.59164 19.07508,-1.54924 0.0203,0.0203 -0.0118,0.77308 -0.0715,1.67276 l -0.10843,1.63577 -0.23323,0.005 c -0.81989,0.0164 -6.8795,0.60693 -6.94277,0.67664 -0.0428,0.0471 -0.22989,3.9225 -0.41584,8.61201 -0.18595,4.68951 -0.34553,8.53489 -0.35462,8.54528 -0.009,0.0104 -0.74561,0.10233 -1.63673,0.20431 -0.89111,0.10196 -1.77392,0.20893 -1.96181,0.2377 l -0.3416,0.0523 z m -28.086109,1.06086 c -3.831032,-0.47984 -6.994095,-0.90102 -7.029032,-0.93595 -0.05217,-0.0522 -2.480749,-20.20472 -2.4395,-20.24332 0.01899,-0.0178 14.710088,1.32568 14.731336,1.34714 0.03514,0.0355 0.231965,3.23332 0.200618,3.25904 -0.01748,0.0143 -2.224263,-0.18947 -4.903978,-0.45288 -2.679722,-0.26341 -5.044774,-0.48077 -5.255675,-0.48302 -0.360003,-0.004 -0.383251,0.0111 -0.379921,0.24404 0.0074,0.51612 0.500228,4.97749 0.556031,5.03329 0.0321,0.0321 2.091934,0.27162 4.577355,0.53221 2.485422,0.2606 4.54292,0.49779 4.572227,0.52708 0.06632,0.0663 0.258177,2.85 0.200404,2.90777 -0.02311,0.0231 -2.048646,-0.17904 -4.501158,-0.44926 -2.452512,-0.27021 -4.486299,-0.46244 -4.519538,-0.42718 -0.06699,0.0711 0.501563,5.77036 0.583856,5.85266 0.02842,0.0284 2.466277,0.33953 5.417439,0.69133 l 5.365741,0.63964 0.05498,0.95156 c 0.03031,0.52335 0.07711,1.16471 0.10415,1.42524 0.04689,0.45159 0.03935,0.47321 -0.160318,0.46337 -0.115232,-0.006 -3.34398,-0.40292 -7.175006,-0.88276 z m 40.619979,-0.88889 c 0.0298,-0.28534 0.27237,-3.47765 0.53906,-7.09404 0.2667,-3.61637 0.52268,-6.613 0.56885,-6.65917 0.14473,-0.14472 2.0886,-0.79719 3.31401,-1.11236 1.55015,-0.39869 2.95197,-0.58629 4.35559,-0.58288 0.99091,0.002 2.42694,0.11897 2.51186,0.20389 0.0152,0.0152 -0.18203,0.68811 -0.43822,1.49544 l -0.46579,1.46785 -0.68142,-0.0737 c -1.36844,-0.148 -2.85289,-0.0761 -3.88445,0.18828 -0.52105,0.13351 -0.99426,0.2916 -1.05158,0.3513 -0.0645,0.0671 -0.30103,2.34404 -0.62058,5.97324 -0.28401,3.22558 -0.54162,5.89229 -0.57249,5.92603 -0.0486,0.0531 -3.11326,0.43491 -3.49099,0.43491 -0.11415,0 -0.12865,-0.0897 -0.0838,-0.5188 z m 17.63913,-3.18198 c 0,-0.11547 1.99717,-5.26058 3.51922,-9.06623 1.28126,-3.20359 2.97324,-7.22856 4.3529,-10.35495 l 0.90648,-2.05413 1.16377,-0.37029 c 0.64008,-0.20366 1.1869,-0.34718 1.21516,-0.31892 0.072,0.072 0.61366,3.61009 0.88737,5.79622 0.49985,3.99237 1.10692,10.65346 0.98207,10.77601 -0.0955,0.0937 -2.1433,0.99226 -2.26146,0.99226 -0.0455,0 -0.15789,-0.81203 -0.24967,-1.80452 -0.10723,-1.15943 -0.20236,-1.80286 -0.26614,-1.79986 -0.0546,0.002 -1.39198,0.54053 -2.972,1.19549 l -2.87276,1.19084 -0.89936,2.34588 c -0.49466,1.29023 -0.94781,2.39418 -1.00698,2.45321 -0.0936,0.0933 -2.34364,1.11073 -2.45646,1.11073 -0.0232,0 -0.0421,-0.0413 -0.0421,-0.0917 z m 7.9117,-9.70722 c 1.20703,-0.47662 2.21838,-0.90502 2.24743,-0.95201 0.0952,-0.15411 -0.73638,-7.10614 -0.86588,-7.23849 -0.0443,-0.0452 -0.1423,0.0717 -0.22712,0.27068 -0.70264,1.64827 -1.48096,3.54559 -2.34596,5.71868 -1.3306,3.34279 -1.23129,3.06769 -1.10751,3.06769 0.0574,0 1.092,-0.38995 2.29904,-0.86655 z m -97.364894,4.88597 -0.986386,-0.46539 -1.865261,-8.7921 c -1.025894,-4.83566 -1.894651,-8.92405 -1.930582,-9.08534 -0.0592,-0.26582 -0.04565,-0.2931 0.14486,-0.29182 0.401035,0.002 1.89807,0.3583 2.856143,0.67844 2.979571,0.99563 5.191665,2.83083 6.467157,5.3653 0.971735,1.9309 1.548368,4.62576 1.313585,6.13898 -0.344097,2.21776 -1.896284,2.5336 -5.26688,1.07169 -0.443747,-0.19247 -0.837665,-0.33087 -0.875374,-0.30756 -0.03773,0.0233 0.211306,1.4095 0.553378,3.08042 0.342066,1.67093 0.61155,3.04586 0.598843,3.0554 -0.01273,0.01 -0.466969,-0.19206 -1.009483,-0.44802 z m 2.878043,-7.66646 c 0.494668,-0.20669 0.620857,-0.56051 0.563781,-1.58076 -0.02653,-0.47436 -0.113406,-1.10608 -0.193041,-1.40382 -0.478599,-1.78942 -1.751679,-3.21227 -3.536058,-3.95204 -0.764519,-0.31695 -1.752451,-0.63093 -1.808583,-0.5748 -0.07411,0.0741 1.245569,6.49804 1.358614,6.61349 0.05476,0.0559 0.540209,0.2719 1.078778,0.47997 1.414608,0.54652 1.998535,0.64273 2.536509,0.41796 z"
         id="path1552"
         sodipodi:nodetypes="ssssssccsssssscssssssssssssssssscsssssssscsscsssssssssscsssssssscssssssscsssscsscssssssssssssssss" />
      <text
         xml:space="preserve"
         style="font-style:normal;font-weight:normal;font-size:21.6105px;line-height:1.25;font-family:sans-serif;letter-spacing:0px;word-spacing:0px;white-space:pre;inline-size:441.301;display:inline;fill:#000000;fill-opacity:1;stroke:none;stroke-width:2.11238"
         x="312.17566"
         y="367.93338"
         id="text1772"
         transform="matrix(0.24389451,0,0,0.24389451,8.7564324,87.940429)"><tspan
           x="312.17566"
           y="367.93338"
           id="tspan4740"><tspan
             style="font-weight:bold;font-family:ubuntu;-inkscape-font-specification:'ubuntu Bold'"
             id="tspan4728">P</tspan><tspan
             style="font-family:ubuntu;-inkscape-font-specification:ubuntu"
             id="tspan4730">rotocole </tspan><tspan
             style="font-weight:bold;font-family:ubuntu;-inkscape-font-specification:'ubuntu Bold'"
             id="tspan4732">E</tspan><tspan
             style="font-family:ubuntu;-inkscape-font-specification:ubuntu"
             id="tspan4734">mploying </tspan><tspan
             style="font-weight:bold;font-family:ubuntu;-inkscape-font-specification:'ubuntu Bold'"
             id="tspan4736">T</tspan><tspan
             style="font-family:ubuntu;-inkscape-font-specification:ubuntu"
             id="tspan4738">hree-dimensional
</tspan></tspan><tspan
           x="312.17566"
           y="395.97792"
           id="tspan4750"><tspan
             style="font-weight:bold"
             id="tspan4742">R</tspan><tspan
             style="font-family:ubuntu;-inkscape-font-specification:ubuntu"
             id="tspan4744">epresentations in </tspan><tspan
             style="font-weight:bold;font-family:ubuntu;-inkscape-font-specification:'ubuntu Bold'"
             id="tspan4746">A</tspan><tspan
             style="font-family:ubuntu;-inkscape-font-specification:ubuntu"
             id="tspan4748">rchaeology</tspan></tspan></text>
      <path
         style="display:inline;fill:none;fill-opacity:1;stroke:#4d4d4d;stroke-width:0.7;stroke-linecap:round;stroke-linejoin:round;stroke-miterlimit:4;stroke-dasharray:none;stroke-opacity:1"
         d="m 44.410965,94.345299 23.642426,1.218318 -7.405096,39.734753 38.319618,3.05629 39.170497,-2.83636 23.82847,-6.75965 -6.02182,29.28944 -21.7888,10.14894 -34.65302,4.18828 -33.752297,-4.53398 12.323947,16.69131 -18.604971,-10.57295 -14.041373,-16.44867 -6.658349,-29.00304 z"
         id="path67571" />
    </g>
  </g>
</svg>
